<svg width="240" height="64" viewBox="0 0 240 64" fill="none" xmlns="http://www.w3.org/2000/svg">
<path d="M77.7029 26.5053C77.5808 25.3712 77.0748 24.4889 76.1775 23.8583C75.2827 23.2277 74.1213 22.9112 72.6931 22.9112C71.6887 22.9112 70.8288 23.0632 70.111 23.3648C69.3932 23.6689 68.8448 24.0776 68.4635 24.5986C68.0822 25.117 67.8877 25.7102 67.8803 26.3756C67.8803 26.929 68.0074 27.41 68.2641 27.8163C68.5183 28.2225 68.8673 28.5665 69.3084 28.8481C69.7496 29.1298 70.2381 29.3641 70.774 29.556C71.3098 29.7454 71.8507 29.9074 72.3965 30.037L74.8889 30.6601C75.8934 30.8944 76.858 31.2084 77.7901 31.6072C78.7198 32.006 79.5547 32.507 80.295 33.1126C81.0352 33.7183 81.621 34.4486 82.0522 35.306C82.4858 36.1634 82.7002 37.1653 82.7002 38.3168C82.7002 39.8746 82.3014 41.2429 81.5063 42.4243C80.7112 43.6057 79.5622 44.5254 78.0618 45.1884C76.5614 45.8489 74.7469 46.1804 72.6184 46.1804C70.4898 46.1804 68.7576 45.8614 67.2397 45.2208C65.7218 44.5803 64.5354 43.6456 63.683 42.4168C62.8306 41.1881 62.3695 39.6926 62.3022 37.928H67.0378C67.1076 38.8527 67.3918 39.6228 67.8952 40.2385C68.3962 40.8516 69.0517 41.3102 69.8617 41.6143C70.6718 41.9184 71.5765 42.0679 72.581 42.0679C73.5854 42.0679 74.5475 41.9109 75.3376 41.5943C76.1302 41.2778 76.7508 40.8366 77.1994 40.2709C77.6481 39.7051 77.8774 39.0396 77.8873 38.2794C77.8798 37.5865 77.6755 37.0133 77.2767 36.5597C76.8779 36.106 76.3221 35.7247 75.6093 35.4181C74.8964 35.1116 74.064 34.8374 73.1119 34.5931L70.0886 33.8155C67.9002 33.2522 66.173 32.3998 64.9043 31.2533C63.6357 30.1068 63.0026 28.5814 63.0026 26.6797C63.0026 25.1145 63.4288 23.7437 64.2812 22.5672C65.1336 21.3908 66.2951 20.4761 67.7656 19.8231C69.2361 19.1701 70.9011 18.8436 72.7604 18.8436C74.6198 18.8436 76.2997 19.1701 77.7228 19.8231C79.146 20.4761 80.2626 21.3808 81.0776 22.5348C81.8901 23.6888 82.3114 25.0148 82.3363 26.5127H77.7029V26.5053Z" fill="#20102F"/>
<path d="M92.5076 46.1779C91.2439 46.1779 90.1099 45.9511 89.1005 45.4975C88.0935 45.0439 87.2959 44.3709 86.7127 43.4786C86.1295 42.5888 85.8379 41.4897 85.8379 40.1836C85.8379 39.0596 86.0448 38.1299 86.461 37.3946C86.8772 36.6594 87.443 36.0712 88.1608 35.63C88.8786 35.1888 89.6887 34.8549 90.5934 34.6256C91.4982 34.3962 92.4328 34.2293 93.4024 34.1271C94.5713 34.0049 95.5184 33.8953 96.2437 33.7956C96.9715 33.6959 97.4999 33.5414 97.8339 33.3295C98.1679 33.1176 98.3324 32.7862 98.3324 32.3375V32.2603C98.3324 31.2832 98.0432 30.5255 97.4625 29.9897C96.8818 29.4538 96.0493 29.1846 94.9576 29.1846C93.8061 29.1846 92.8964 29.4363 92.226 29.9373C91.5555 30.4383 91.1044 31.0315 90.8701 31.7144L86.4834 31.0913C86.8299 29.88 87.4006 28.8656 88.1957 28.0481C88.9908 27.2306 89.9653 26.6174 91.1143 26.2062C92.2658 25.7949 93.537 25.5905 94.9302 25.5905C95.8898 25.5905 96.8469 25.7027 97.799 25.927C98.7511 26.1513 99.6209 26.5227 100.406 27.0361C101.194 27.5521 101.827 28.25 102.308 29.1323C102.789 30.0146 103.028 31.1187 103.028 32.4422V45.7816H98.5118V43.0449H98.3573C98.0707 43.5982 97.6719 44.1142 97.156 44.5952C96.64 45.0763 95.997 45.4601 95.2218 45.7492C94.4467 46.0383 93.5419 46.1829 92.5026 46.1829L92.5076 46.1779ZM93.7264 42.7259C94.6685 42.7259 95.486 42.539 96.1789 42.1626C96.8718 41.7863 97.4052 41.2878 97.7815 40.6647C98.1579 40.0416 98.3448 39.3636 98.3448 38.6284V36.2805C98.1978 36.4026 97.9485 36.5148 97.5996 36.617C97.2482 36.7217 96.8569 36.8114 96.4257 36.8887C95.992 36.9659 95.5658 37.0357 95.1421 37.0955C94.7184 37.1554 94.3495 37.2077 94.0379 37.2501C93.3376 37.3448 92.7095 37.5018 92.1562 37.7162C91.6028 37.933 91.1667 38.2321 90.8452 38.6184C90.5261 39.0022 90.3641 39.4982 90.3641 40.1039C90.3641 40.9688 90.6807 41.6218 91.3112 42.0629C91.9418 42.5041 92.7469 42.7259 93.7239 42.7259H93.7264Z" fill="#20102F"/>
<path d="M117.863 25.8448V29.4787H106.082V25.8448H117.863ZM109.025 45.7741V23.9605C109.025 22.6196 109.304 21.503 109.863 20.6132C110.421 19.7234 111.171 19.0554 112.113 18.6143C113.055 18.1731 114.102 17.9513 115.254 17.9513C116.066 17.9513 116.789 18.0161 117.42 18.1457C118.05 18.2753 118.519 18.3924 118.82 18.4971L117.886 22.1311C117.686 22.0712 117.434 22.0089 117.133 21.9441C116.829 21.8793 116.492 21.8469 116.121 21.8469C115.246 21.8469 114.631 22.0563 114.272 22.475C113.913 22.8937 113.733 23.4944 113.733 24.272V45.7741H109.023H109.025Z" fill="#20102F"/>
<path d="M129.62 46.1629C127.621 46.1629 125.898 45.7467 124.448 44.9118C123 44.0768 121.886 42.8929 121.105 41.3551C120.328 39.8197 119.937 38.0103 119.937 35.9241C119.937 33.8379 120.328 32.0733 121.11 30.5205C121.893 28.9678 122.99 27.7565 124.4 26.8866C125.811 26.0167 127.466 25.5831 129.37 25.5831C130.599 25.5831 131.761 25.78 132.855 26.1738C133.949 26.5676 134.918 27.1757 135.761 27.9957C136.603 28.8182 137.269 29.8625 137.752 31.1287C138.236 32.3948 138.48 33.9028 138.48 35.6499V37.0905H122.142V33.9252H133.976C133.966 33.0254 133.772 32.2229 133.393 31.5175C133.012 30.8122 132.483 30.2563 131.803 29.8501C131.122 29.4438 130.335 29.2394 129.435 29.2394C128.476 29.2394 127.631 29.4712 126.905 29.9348C126.178 30.3984 125.614 31.0041 125.213 31.7518C124.812 32.4995 124.605 33.3195 124.597 34.2118V36.9759C124.597 38.1349 124.809 39.1269 125.233 39.9543C125.657 40.7793 126.25 41.4124 127.01 41.8486C127.77 42.2847 128.662 42.5041 129.682 42.5041C130.365 42.5041 130.983 42.4069 131.539 42.2125C132.092 42.0181 132.573 41.7314 132.979 41.3501C133.386 40.9688 133.692 40.4977 133.902 39.9369L138.288 40.4304C138.012 41.5894 137.486 42.5988 136.71 43.4612C135.935 44.3211 134.948 44.989 133.745 45.4601C132.541 45.9311 131.167 46.1679 129.617 46.1679L129.62 46.1629Z" fill="#20102F"/>
<path d="M142.66 45.7741V19.2H147.473V30.4507H159.788V19.2H164.616V45.7741H159.788V34.486H147.473V45.7741H142.66Z" fill="#20102F"/>
<path d="M175.371 46.1779C174.107 46.1779 172.973 45.9511 171.964 45.4975C170.957 45.0439 170.159 44.3709 169.576 43.4786C168.993 42.5888 168.701 41.4897 168.701 40.1836C168.701 39.0596 168.908 38.1299 169.324 37.3946C169.741 36.6594 170.306 36.0712 171.024 35.63C171.742 35.1888 172.552 34.8549 173.457 34.6256C174.361 34.3962 175.296 34.2293 176.266 34.1271C177.435 34.0049 178.382 33.8953 179.107 33.7956C179.835 33.6959 180.363 33.5414 180.697 33.3295C181.031 33.1176 181.196 32.7862 181.196 32.3375V32.2603C181.196 31.2832 180.907 30.5255 180.326 29.9897C179.745 29.4538 178.913 29.1846 177.821 29.1846C176.669 29.1846 175.76 29.4363 175.089 29.9373C174.419 30.4383 173.968 31.0315 173.733 31.7144L169.347 31.0913C169.693 29.88 170.264 28.8656 171.059 28.0481C171.854 27.2306 172.829 26.6174 173.978 26.2062C175.129 25.7949 176.4 25.5905 177.793 25.5905C178.753 25.5905 179.71 25.7027 180.66 25.927C181.612 26.1513 182.482 26.5227 183.267 27.0361C184.054 27.5521 184.688 28.25 185.169 29.1323C185.65 30.0146 185.889 31.1187 185.889 32.4422V45.7816H181.373V43.0449H181.218C180.931 43.5982 180.533 44.1142 180.017 44.5952C179.501 45.0763 178.858 45.4601 178.083 45.7492C177.307 46.0383 176.403 46.1829 175.363 46.1829L175.371 46.1779ZM176.592 42.7259C177.534 42.7259 178.352 42.539 179.045 42.1626C179.738 41.7863 180.271 41.2878 180.647 40.6647C181.024 40.0416 181.211 39.3636 181.211 38.6284V36.2805C181.064 36.4026 180.814 36.5148 180.465 36.617C180.114 36.7217 179.723 36.8114 179.291 36.8887C178.858 36.9659 178.432 37.0357 178.008 37.0955C177.584 37.1554 177.215 37.2077 176.904 37.2501C176.203 37.3448 175.575 37.5018 175.022 37.7162C174.469 37.933 174.032 38.2321 173.711 38.6184C173.389 39.0022 173.23 39.4982 173.23 40.1039C173.23 40.9688 173.546 41.6218 174.177 42.0629C174.808 42.5041 175.613 42.7259 176.59 42.7259H176.592Z" fill="#20102F"/>
<path d="M194.744 45.7741L189.111 25.8423H193.899L197.403 39.8571H197.585L201.167 25.8423H205.902L209.484 39.7774H209.678L213.13 25.8423H217.931L212.285 45.7741H207.393L203.657 32.3051H203.385L199.649 45.7741H194.744Z" fill="#20102F"/>
<path d="M221.229 45.7741V19.2H225.927V45.7741H221.229ZM225.51 39.5206L225.498 33.8504H226.251L233.414 25.8448H238.902L230.092 35.6549H229.117L225.51 39.5206ZM233.738 45.7741L227.25 36.7042L230.416 33.3943L239.356 45.7741H233.738Z" fill="#20102F"/>
<path d="M51.7456 10.2249C51.7456 10.2249 38.5477 10.6011 25.9203 0C13.2905 10.6011 0.0950634 10.2249 0.0950634 10.2249C-1.82302 52.2505 25.9203 63.9975 25.9203 63.9975C25.9203 63.9975 53.6636 52.2505 51.7456 10.2249Z" fill="white"/>
<path d="M10.2166 43.056C10.2166 43.056 13.1577 39.242 16.1455 37.9928C19.1333 36.7436 21.0415 31.9582 17.198 30.8811C17.198 30.8811 15.543 31.9803 13.7208 31.5943C13.7208 31.5943 13.3446 33.5861 14.2274 34.7886C14.2274 34.7886 11.4831 34.6386 10.7872 31.1787C10.0912 27.7188 11.0699 25.5597 12.9118 23.2088C12.9118 23.2088 12.6643 22.2547 12.6643 21.271C12.6643 20.2874 12.9225 19.1784 13.279 18.689C13.6356 18.1997 13.8651 17.7644 14.2627 16.9677C15.0004 15.4891 18.2505 9.31747 28.1753 9.12074L27.0294 10.0036C27.0294 10.0036 36.428 8.07809 41.4076 14.7496C41.4076 14.7496 39.942 14.1668 38.1001 14.0364C38.1001 14.0364 43.9823 17.3636 44.961 23.5654C44.961 23.5654 43.9085 22.3555 43.2126 22.0678C43.2126 22.0678 45.4307 23.9785 45.7405 30.8295C45.7405 30.8295 44.9585 29.7868 44.3216 29.4475C44.3216 29.4475 45.2634 31.6557 45.5733 33.564L46.1364 38.3567L40.1879 50.8735L26.1539 63.1098L17.4095 56.0056L9.96582 45.3209L10.2191 43.0511L10.2166 43.056Z" fill="#20102F"/>
<path d="M23.8251 26.7597C23.8251 26.7597 23.4734 27.1114 22.3816 27.0843C21.2873 27.0548 19.7872 27.2589 17.9626 28.1048C16.1355 28.9507 15.2699 28.9999 14.3379 29.2409C13.4084 29.4794 12.7248 30.3672 12.7321 31.1295C12.7395 31.8377 12.7592 32.7746 12.7617 32.8976V32.9099C10.8067 30.1655 11.1829 25.8818 13.3813 24.1137C13.3813 24.1137 13.8166 23.8334 13.9223 24.5957C14.0281 25.3556 14.2199 25.9212 14.783 26.1892C14.783 26.1892 14.2617 25.4121 14.1633 24.3916C14.124 23.9859 14.0035 23.7818 13.8732 23.6859C13.6887 23.5506 13.4822 23.6244 13.4527 23.6342C13.4822 23.558 14.124 22.0481 15.3388 22.2842C15.4568 22.3063 15.5576 22.3383 15.6511 22.3776H15.6535C16.5339 22.7563 16.3396 23.8432 17.4339 24.3424L16.8486 23.3047C16.8486 23.3047 17.5249 23.8408 17.9552 24.0818C17.9552 24.0818 17.5519 23.6785 18.1446 23.7227C18.7372 23.7645 18.9143 23.617 19.3077 24.249C19.7036 24.8834 19.8586 25.1662 21.4938 25.7515C23.1291 26.3367 23.8251 26.7597 23.8251 26.7597Z" fill="#FD8370"/>
<path d="M14.9229 30.5369C14.9229 30.5369 16.0639 29.7623 16.8827 29.1401C17.7016 28.518 19.2385 27.9155 20.8861 27.5835C22.6345 27.2319 23.6772 27.6598 23.9157 26.9122C23.9157 26.9122 24.4788 27.0819 24.1001 27.463C23.7214 27.8442 23.6206 27.8344 21.5058 27.886C19.391 27.9377 17.8418 29.0836 17.2909 29.6615C16.7401 30.2394 14.9229 30.5344 14.9229 30.5344V30.5369Z" fill="#FD8370"/>
<path d="M17.397 25.3211C16.4306 24.758 15.9511 24.5244 15.5724 24.2145C15.1937 23.9047 14.9035 24.2563 14.756 24.5539C14.6084 24.8514 14.756 25.5129 15.4962 25.6531C16.2363 25.7933 16.4478 25.5744 16.7159 25.4564C16.9839 25.3383 17.3995 25.3236 17.3995 25.3236L17.397 25.3211Z" fill="#20102F"/>
<path d="M22.0669 22.3112L22.8833 21.8686C22.8833 21.8686 22.6866 22.9407 23.7563 23.2776C24.826 23.6145 25.7851 22.9358 26.0015 22.1317C26.2179 21.3276 25.8687 20.28 25.8687 20.28L26.7613 20.0636C26.7613 20.0636 27.5408 21.0964 26.7515 22.7317C25.9621 24.367 23.8375 24.2982 22.9645 23.6539C22.1382 23.044 22.062 22.3112 22.062 22.3112H22.0669Z" fill="url(#paint0_linear_91_175)"/>
<path d="M23.8135 22.3198C24.0705 22.3198 24.2789 22.1114 24.2789 21.8544C24.2789 21.5974 24.0705 21.3891 23.8135 21.3891C23.5565 21.3891 23.3481 21.5974 23.3481 21.8544C23.3481 22.1114 23.5565 22.3198 23.8135 22.3198Z" fill="white"/>
<path d="M35.717 27.972C35.717 27.972 35.6998 27.9696 35.6924 27.9671C35.6924 27.9671 35.6949 27.9671 35.6974 27.9671C35.9654 28.0433 45.5091 30.8393 43.2492 40.0313L41.6606 36.569C42.0442 37.4813 43.8443 42.5003 39.1499 47.3619L38.4737 45.2938C38.4737 45.2938 38.7368 49.2406 33.9268 53.0374C33.9268 53.0374 34.49 51.1611 34.3768 50.1824C34.3768 50.2955 34.3424 53.2046 30.6563 56.008C27.0144 58.7769 25.984 59.4605 25.9225 59.4999C25.9225 59.4999 25.6201 59.4286 20.3576 55.2555C15.0952 51.0824 11.9009 45.8569 11.9009 45.8569C11.9009 45.8569 13.9862 43.2257 16.6936 42.306C16.6936 42.306 14.9624 44.261 14.3255 45.8397C14.3255 45.8397 17.2149 43.3806 20.3871 42.2322C20.2125 42.2568 17.4412 42.697 16.3223 43.4839C16.4206 43.3634 18.019 41.4379 19.5486 40.7642C19.5486 40.7642 17.5567 40.7076 14.8517 42.3626L18.3633 39.3379C18.2207 39.4166 13.7083 41.9593 11.5418 44.9938L10.8853 44.0347C10.8853 44.0347 14.0796 40.4076 16.7108 39.2617C17.569 38.8879 18.3068 38.4698 18.9166 37.9903C20.1732 37.0067 20.8765 35.7698 20.9404 34.1492C20.9404 34.1492 21.3093 35.2607 20.9281 36.4952C20.7609 37.0386 20.4486 37.6042 19.8929 38.1108C19.9248 38.096 20.0994 38.0026 20.3281 37.8108C20.3281 37.8108 20.3281 37.8108 20.3281 37.8083C21.0609 37.196 22.3151 35.5706 20.9011 32.268C20.9011 32.268 22.4159 32.9836 22.947 35.005C23.1143 35.6345 23.1856 36.387 23.0872 37.287C23.0847 37.3042 23.0823 37.3239 23.0798 37.3436C23.0798 37.3436 24.5061 34.5845 22.1282 32.4771C22.2118 32.4943 23.5593 32.8287 24.5454 33.9181C24.5012 33.8148 23.7635 32.1549 22.1651 31.4246C22.2929 31.4565 24.3364 31.9852 26.1512 33.0967C26.1512 33.0967 25.8069 31.7246 22.6101 30.6327C19.4158 29.5434 18.8699 29.5434 18.8699 29.5434C18.8699 29.5434 20.6945 28.1909 22.5733 28.2843C24.452 28.3778 24.8282 27.4753 24.8282 27.4753C24.8282 27.4753 24.6782 27.8515 25.8069 27.6818C26.9332 27.5146 27.7619 27.2318 27.7619 27.2318C27.7619 27.2318 24.6684 26.9392 23.579 26.263C23.579 26.263 22.5216 25.7195 21.1814 25.2351C19.8437 24.7506 19.2633 24.0916 19.7158 23.3022C19.7158 23.3022 19.8093 24.1113 20.4683 24.1678C20.4683 24.1678 19.7552 23.2457 19.9986 22.9825C20.2421 22.7194 20.8617 22.7391 20.8617 22.7391L20.6945 23.4153L21.2773 23.2285C21.2773 23.2285 22.4036 24.731 24.6979 24.5809C26.9898 24.4309 27.9857 22.7022 27.6021 20.8038C27.6021 20.8038 29.5841 21.0472 30.6366 20.0612C30.6366 20.0612 29.3972 20.371 28.3988 20.1644C28.3988 20.1644 29.021 19.8251 29.2079 19.562L27.7422 19.6185C27.7422 19.6185 30.1398 18.3226 31.4776 17.039C31.6325 16.8889 31.7751 16.7414 31.8956 16.5939C31.8956 16.5939 30.1103 17.4963 29.6407 17.8701C29.171 18.2464 28.2685 18.4357 26.6701 18.6792C25.0741 18.9251 22.497 20.0612 19.3961 21.8514L20.2421 19.8079C20.2421 19.8079 19.5092 20.2579 18.7764 21.2735C18.7494 21.3104 18.7248 21.3473 18.7027 21.3866C18.0879 22.3752 18.6633 23.5112 19.133 23.5481C19.133 23.5481 17.3084 23.6416 16.5141 21.6866C16.3715 21.3374 16.2608 20.9218 16.2018 20.4276C16.2018 20.4276 15.8969 21.6792 16.4551 22.6555C16.3641 22.5325 16.2534 22.3948 16.1403 22.2768C16.0223 22.1514 15.9018 22.0506 15.7985 22.0161C15.6239 21.9571 15.2108 21.9719 14.8936 21.6719C14.5985 21.3964 14.387 20.8456 14.5296 19.7095C14.5296 19.7095 14.3771 20.0021 14.2689 20.4128H14.2665C14.1485 20.8628 14.0821 21.4505 14.323 21.9497C14.323 21.9497 14.0181 22.085 13.787 21.9842C13.6345 21.9178 13.5116 21.753 13.5238 21.3866C13.5509 20.4546 14.5935 17.7029 15.7788 16.1709C16.7649 14.8971 19.4355 12.2462 23.011 11.1372C23.7389 10.9085 24.5036 10.7462 25.2979 10.6724L24.0438 11.7716C24.0438 11.7716 30.7866 9.00022 37.2343 12.647C37.2343 12.647 33.9072 12.6839 32.7784 13.1536C32.7784 13.1536 39.4696 14.093 42.5902 20.3907C42.5902 20.3907 40.8983 19.1316 38.9065 19.0185C38.9065 19.0185 43.1361 21.9694 44.3189 27.4753C44.3189 27.4753 41.2795 23.9662 40.318 23.4744C40.4016 23.5481 43.0746 25.9851 44.0755 33.8664C44.0755 33.8664 42.9885 31.7098 40.5836 29.9762C40.5836 29.9762 40.5836 29.9737 40.5836 29.9712C39.4524 29.1573 38.031 28.4343 36.2925 28.0728C36.2457 28.063 36.199 28.0532 36.1523 28.0433C36.0908 28.0335 36.0293 28.0212 35.9679 28.0089C35.8867 27.9942 35.8031 27.9819 35.7195 27.9696L35.717 27.972Z" fill="#EFEDF2"/>
<path d="M43.2495 40.0338L41.661 36.5714C42.0446 37.4837 43.8446 42.5027 39.1502 47.3643L38.474 45.2962C38.474 45.2962 38.7371 49.2431 33.9272 53.0399C33.9272 53.0399 34.4903 51.1636 34.3772 50.1849C34.3772 50.298 34.3427 53.2071 30.6566 56.0104C27.0147 58.7794 25.9843 59.463 25.9229 59.5023V49.3365L27.2753 50.4283C27.2753 50.4283 25.9401 44.2241 28.7778 41.0666C28.7778 41.0666 30.6197 38.2485 27.7254 34.2279C27.7254 34.2279 29.2106 34.9214 29.6434 35.4673C29.6434 35.4673 30.3394 33.682 29.5893 32.2729C29.7123 32.3688 33.6345 35.4747 35.1887 39.4313C35.1887 39.4313 34.6427 32.9467 31.0156 30.2983C31.0156 30.2983 35.169 30.0721 38.0437 31.877C38.0437 31.877 36.8239 28.9065 34.3796 28.004C34.3796 28.004 34.7952 27.8491 35.6952 27.9671C35.6952 27.9671 35.6977 27.9671 35.7001 27.9671C35.9682 28.0433 45.5119 30.8393 43.252 40.0313L43.2495 40.0338Z" fill="url(#paint1_linear_91_175)"/>
<path d="M44.0757 33.8689C44.0757 33.8689 42.9888 31.7123 40.5838 29.9786C40.5838 29.9786 40.5838 29.9762 40.5838 29.9737C40.5174 29.8065 38.351 24.4039 34.0599 23.7572C34.0599 23.7572 38.378 23.1375 40.0158 24.6178C39.9715 24.4801 38.4567 20.1005 33.6665 18.2882C33.6665 18.2882 35.7886 16.8029 39.0789 17.7054C39.0789 17.7054 36.5411 14.1323 30.809 14.6979C30.809 14.6979 32.0558 13.943 33.9468 14.0217C33.9468 14.0217 31.8418 12.8364 27.7819 13.343C27.7819 13.343 28.6106 12.7995 30.0934 12.6495C30.0934 12.6495 24.0072 12.0839 19.5341 16.5373C19.6128 16.4242 22.1703 12.7921 24.59 12.2905C24.59 12.2905 20.8276 12.47 16.2808 17.8505C16.2808 17.8505 17.08 14.1741 23.0137 11.1396C23.7416 10.9109 24.5064 10.7486 25.3007 10.6749L24.0465 11.7741C24.0465 11.7741 30.7893 9.00269 37.237 12.6495C37.237 12.6495 33.9099 12.6864 32.7812 13.1561C32.7812 13.1561 39.4723 14.0954 42.5929 20.3931C42.5929 20.3931 40.9011 19.1341 38.9092 19.021C38.9092 19.021 43.1388 21.9719 44.3216 27.4778C44.3216 27.4778 41.2822 23.9686 40.3207 23.4768C40.4043 23.5506 43.0774 25.9876 44.0782 33.8689H44.0757Z" fill="url(#paint2_linear_91_175)"/>
<path d="M38.3235 36.5001C38.3235 36.5001 38.6629 44.47 33.6611 48.2275C33.6611 48.2275 34.8267 45.0331 32.6849 39.8076C32.6849 39.8076 35.2792 50.1087 28.2856 51.3481C28.2856 51.3481 24.8281 47.5512 26.82 43.0782C28.8118 38.6051 28.6987 37.7395 28.6987 37.7395C28.6987 37.7395 27.2208 40.265 26.4068 41.5732C25.2142 43.4913 24.7568 45.1045 24.7519 46.0463C24.7519 46.0463 20.5788 43.8651 23.9822 37.7198C23.9822 37.7198 21.9338 39.542 21.8575 42.2864C21.7813 45.0307 23.8322 46.6856 24.9781 47.0791C24.9781 47.0791 24.9781 45.9897 25.2043 45.3307C25.2043 45.3307 25.1035 47.8857 26.1486 49.73C27.1962 51.5718 27.4593 52.6243 27.4593 52.6243C27.4593 52.6243 30.993 52.5874 32.9652 49.2775V49.6341C32.9652 49.6341 39.9391 47.6988 38.3211 36.4952L38.3235 36.5001Z" fill="#20102F"/>
<path d="M28.1749 15.2439C23.1288 15.6668 20.7607 18.7972 20.7607 18.7972C22.6788 16.7955 28.1749 15.2439 28.1749 15.2439Z" fill="#20102F"/>
<path d="M20.4212 44.4233C17.4039 52.3735 24.9041 57.9556 24.9041 57.9556C19.1252 50.6546 20.4212 44.4233 20.4212 44.4233Z" fill="#20102F"/>
<path d="M14.3232 21.9522C14.3232 21.9522 14.0182 22.0875 13.7871 21.9866C13.7477 21.635 13.7674 20.9981 14.2666 20.4178C14.1486 20.8653 14.0822 21.453 14.3232 21.9522Z" fill="#DACAEB"/>
<path d="M18.917 37.9928H18.9146C20.1711 37.0092 20.8744 35.7722 20.9384 34.1517C20.9384 34.1517 21.3072 35.2632 20.9261 36.4977C20.5302 37.0116 19.7457 37.887 18.917 37.9928Z" fill="#DACAEB"/>
<path d="M22.947 35.0074L22.3052 34.7886C22.3052 34.7886 21.6855 37.0116 20.3281 37.8108C21.0609 37.1985 22.3151 35.573 20.9011 32.2705C20.9011 32.2705 22.4159 32.9861 22.947 35.0074Z" fill="#DACAEB"/>
<path d="M16.1408 22.2793C16.0227 22.1539 15.9022 22.053 15.7989 22.0186C15.6244 21.9596 15.2112 21.9743 14.894 21.6743C14.8694 21.0768 14.9186 19.8915 15.5162 18.7948C15.5162 18.7948 15.4596 19.7685 15.5162 20.135C15.5162 20.135 15.7547 19.3013 15.9662 18.9644C15.9662 18.9644 15.8432 20.9907 16.1408 22.2793Z" fill="#DACAEB"/>
<path d="M16.5146 21.6891C16.6769 21.8194 16.9032 21.9522 17.1368 21.967C17.1368 21.967 17.2794 20.8973 18.177 20.3341C18.1253 20.403 17.0556 21.8366 17.7442 22.8129C17.7442 22.8129 17.4761 21.0915 19.0131 20.3317C19.0131 20.3317 18.4204 20.853 18.7032 21.3891C18.0885 22.3776 18.6639 23.5137 19.1336 23.5506C19.1336 23.5506 17.3089 23.6441 16.5146 21.6891Z" fill="#DACAEB"/>
<path d="M29.4151 19.9235C29.4151 19.9235 30.2979 20.0071 31.3701 19.7194C31.3701 19.7194 30.6004 20.6169 29.7348 20.9759C29.7348 20.9759 30.0742 22.9678 28.7758 24.4703C27.4798 25.9753 25.4167 26.0121 24.588 25.9556C24.588 25.9556 25.6011 27.3081 29.0955 26.5384C29.0955 26.5384 27.4651 28.5302 23.8257 28.813C20.1862 29.0958 20.8084 29.113 20.8084 29.113C20.8084 29.113 23.7961 29.7327 25.5618 30.2418C27.3298 30.7483 29.0782 31.5746 29.3217 34.2082C29.3217 34.2082 27.9864 33.1164 26.5774 33.0426C26.5774 33.0426 27.1159 33.8689 27.1085 34.4148C27.1085 34.4148 26.3315 33.2172 24.588 33.2492C24.588 33.2492 26.0511 34.9411 26.0142 36.3304C26.0142 36.3304 25.5568 34.9042 24.0789 34.4886C24.0789 34.4886 24.3421 36.0673 23.024 37.496C23.024 37.496 23.051 37.4198 23.0879 37.2895C23.0855 37.3067 23.083 37.3264 23.0805 37.346C23.0805 37.346 24.5068 34.5869 22.1289 32.4795C22.2125 32.4967 23.5601 32.8312 24.5462 33.9205C24.5019 33.8173 23.7642 32.1574 22.1658 31.427C22.2936 31.459 24.3371 31.9877 26.1519 33.0992C26.1519 33.0992 25.8077 31.727 22.6109 30.6352C19.4165 29.5458 18.8706 29.5458 18.8706 29.5458C18.8706 29.5458 20.6952 28.1933 22.574 28.2868C24.4527 28.3802 24.829 27.4777 24.829 27.4777C24.829 27.4777 24.679 27.854 25.8077 27.6843C26.9339 27.5171 27.7626 27.2343 27.7626 27.2343C27.7626 27.2343 24.6691 26.9417 23.5797 26.2654C23.5797 26.2654 22.5223 25.722 21.1821 25.2375C19.8444 24.7531 19.1805 24.0645 19.7165 23.3047C19.7165 23.3047 19.81 24.1137 20.469 24.1703C20.469 24.1703 19.7559 23.2481 19.9993 22.985C20.2428 22.7219 20.8625 22.7416 20.8625 22.7416L20.6952 23.4178L21.278 23.2309C21.278 23.2309 22.4043 24.7334 24.6986 24.5834C26.9905 24.4334 27.9864 22.7047 27.6028 20.8063C27.6028 20.8063 29.5848 21.0497 30.6373 20.0636C30.6373 20.0636 29.3979 20.3735 28.3995 20.1669C28.3995 20.1669 29.0217 19.8276 29.2086 19.5644L27.743 19.621C27.743 19.621 30.1406 18.3251 31.4783 17.0414C32.2013 16.7635 33.4505 16.466 35.1866 16.7267C35.1866 16.7267 33.1382 16.7267 30.4307 18.5882C30.4307 18.5882 31.9726 18.2488 33.0054 18.7013C33.0054 18.7013 31.4832 19.021 31.2004 19.3579C30.9201 19.6972 29.7348 19.9603 29.4151 19.9235Z" fill="#DACAEB"/>
<path d="M13.9223 24.5957C11.0182 26.3908 11.7338 30.1237 12.7617 32.8975V32.9098C10.8067 30.1655 11.1829 25.8818 13.3813 24.1137C13.3813 24.1137 13.8166 23.8334 13.9223 24.5957Z" fill="white"/>
<path d="M15.6515 22.3776C14.5941 22.3973 14.0458 23.3317 13.8736 23.6859C13.6892 23.5506 13.4826 23.6244 13.4531 23.6342C13.4826 23.558 14.1245 22.0481 15.3392 22.2842C15.4573 22.3063 15.5581 22.3383 15.6515 22.3776Z" fill="white"/>
<path d="M25.9203 5.30915C34.4312 11.5257 42.7822 13.5077 47.661 14.1299C47.6782 21.6325 46.67 28.5475 44.656 34.732C42.8044 40.4174 40.0944 45.5126 36.605 49.8726C32.4787 55.0268 28.195 57.958 25.9228 59.2859C23.6481 57.958 19.3644 55.0268 15.2405 49.8726C11.7511 45.5126 9.04365 40.4199 7.18951 34.732C5.17552 28.5499 4.1673 21.6325 4.18451 14.1299C9.06087 13.5077 17.4144 11.5257 25.9252 5.30915M25.9203 0C14.1266 9.89779 1.83855 10.2273 0.26474 10.2273C0.154081 10.2273 0.0950634 10.2273 0.0950634 10.2273C-1.82302 52.253 25.9203 64 25.9203 64C25.9203 64 53.6636 52.253 51.7456 10.2273C51.7456 10.2273 51.6865 10.2273 51.5759 10.2273C50.0021 10.2273 37.7141 9.90025 25.9203 0Z" fill="url(#paint3_linear_91_175)"/>
<path fill-rule="evenodd" clip-rule="evenodd" d="M25.9348 5.17191C17.4181 11.4248 9.06017 13.4189 4.18039 14.0451C4.16316 21.599 5.17251 28.5636 7.18876 34.788C9.04498 40.5147 11.7555 45.6423 15.2488 50.032C19.3773 55.2215 23.6658 58.1727 25.943 59.5097C28.2178 58.1727 32.5063 55.2215 36.6372 50.032C40.1306 45.6423 42.8435 40.5123 44.6973 34.788C46.7135 28.5612 47.7229 21.599 47.7057 14.0451C42.8234 13.4189 34.468 11.4248 25.9513 5.17191C25.9485 5.1699 25.9458 5.16789 25.943 5.16587C25.9438 5.16527 25.9447 5.16467 25.9455 5.16406H25.9406C25.9414 5.16467 25.9422 5.16527 25.943 5.16587C25.9403 5.16788 25.9375 5.1699 25.9348 5.17191ZM25.943 6.6817C18.0607 12.2615 10.3822 14.3432 5.41443 15.112C5.49037 22.144 6.48209 28.6165 8.35846 34.4091C10.1726 40.0059 12.816 45.0004 16.2109 49.2664L16.211 49.2666C19.8691 53.8648 23.6507 56.6469 25.9427 58.0727C28.2333 56.6467 32.015 53.8644 35.6752 49.2664C39.0702 45.0002 41.716 40.0032 43.5276 34.4092C45.404 28.6142 46.3957 22.1438 46.4716 15.1121C41.5021 14.3433 33.8254 12.2616 25.943 6.6817Z" fill="#20102F"/>
<defs>
<linearGradient id="paint0_linear_91_175" x1="22.0669" y1="22.0727" x2="27.108" y2="22.0727" gradientUnits="userSpaceOnUse">
<stop stop-color="#FF8673"/>
<stop offset="0.48" stop-color="#FFD7D1"/>
<stop offset="1" stop-color="#FD8370"/>
</linearGradient>
<linearGradient id="paint1_linear_91_175" x1="27.7509" y1="28.2551" x2="39.3952" y2="53.2378" gradientUnits="userSpaceOnUse">
<stop stop-color="#F15848"/>
<stop offset="1" stop-color="#9739EF"/>
</linearGradient>
<linearGradient id="paint2_linear_91_175" x1="19.1809" y1="10.919" x2="23.786" y2="32.2604" gradientUnits="userSpaceOnUse">
<stop stop-color="#F15848"/>
<stop offset="1" stop-color="#9739EF"/>
</linearGradient>
<linearGradient id="paint3_linear_91_175" x1="12.1724" y1="6.51656" x2="37.0091" y2="56.3129" gradientUnits="userSpaceOnUse">
<stop stop-color="#F55A42"/>
<stop offset="1" stop-color="#9639F3"/>
</linearGradient>
</defs>
</svg>
